
  <svg width="100%" height="100%" viewBox="0 0 200 200" fill="none" xmlns="http://www.w3.org/2000/svg">
    <!-- 背景圆 -->
    <circle cx="100" cy="100" r="100" fill="#E1F0FF"/>
    
    <!-- 云朵装饰 -->
    <path d="M160 80C160 97.67 145.67 112 128 112H100C88.95 112 80 103.05 80 92C80 82.06 87.16 73.96 96.5 72.26C96.17 70.87 96 69.45 96 68C96 56.95 104.95 48 116 48C122.63 48 128.55 50.69 132.69 55.04C136.87 50.01 143.47 47 151 47C165.36 47 177 58.64 177 73C177 74.22 176.9 75.41 176.72 76.56C170.74 78.53 165.74 82.67 162.48 88C161.51 85.52 160.84 82.84 160 80Z" fill="#3B82F6" fill-opacity="0.1"/>
    
    <!-- 用户图标 -->
    <circle cx="100" cy="85" r="35" fill="#3B82F6" fill-opacity="0.2"/>
    <path d="M100 85C108.28 85 115 78.28 115 70C115 61.72 108.28 55 100 55C91.72 55 85 61.72 85 70C85 78.28 91.72 85 100 85Z" fill="#3B82F6"/>
    <path d="M100 95C79.01 95 62 112.01 62 133C62 138.52 66.48 143 72 143H128C133.52 143 138 138.52 138 133C138 112.01 120.99 95 100 95Z" fill="#3B82F6"/>
    
    <!-- 同步装饰 -->
    <g transform="translate(135, 40) scale(0.5)">
      <circle cx="30" cy="30" r="20" fill="#3B82F6" fill-opacity="0.2"/>
      <path d="M30 20V17L23 24L30 31V28C35.52 28 40 32.48 40 38C40 39.67 39.58 41.23 38.85 42.62L41.44 45.21C42.76 43.09 43.5 40.64 43.5 38C43.5 30.54 37.46 24.5 30 24.5V20Z" fill="#3B82F6"/>
      <path d="M30 48C24.48 48 20 43.52 20 38C20 36.33 20.42 34.77 21.15 33.38L18.56 30.79C17.24 32.91 16.5 35.36 16.5 38C16.5 45.46 22.54 51.5 30 51.5V56L37 49L30 42V45Z" fill="#3B82F6"/>
    </g>
  </svg>
